<svg width="35" height="35" viewBox="0 0 35 35" fill="none" xmlns="http://www.w3.org/2000/svg">
<circle cx="17.5" cy="17.5" r="16.6667" stroke="#EEEDF0" stroke-width="1.66667"/>
<path d="M22.1128 11.0184C22.1128 13.531 20.0534 15.5786 17.4997 15.5786V16.8286C20.7318 16.8286 23.3628 14.2333 23.3628 11.0184H22.1128ZM17.4997 15.5786C14.9459 15.5786 12.8866 13.531 12.8866 11.0184H11.6366C11.6366 14.2333 14.2676 16.8286 17.4997 16.8286V15.5786ZM12.8866 11.0184C12.8866 8.50588 14.9459 6.45825 17.4997 6.45825V5.20825C14.2676 5.20825 11.6366 7.80359 11.6366 11.0184H12.8866ZM17.4997 6.45825C20.0534 6.45825 22.1128 8.50588 22.1128 11.0184H23.3628C23.3628 7.80359 20.7318 5.20825 17.4997 5.20825V6.45825ZM26.0413 24.6295C26.0413 25.5148 25.299 26.4882 23.7042 27.2776C22.1487 28.0475 19.9559 28.5416 17.4997 28.5416V29.7916C20.1061 29.7916 22.4966 29.27 24.2587 28.3979C25.9816 27.5451 27.2913 26.25 27.2913 24.6295H26.0413ZM17.4997 28.5416C15.0435 28.5416 12.8507 28.0475 11.2951 27.2776C9.70032 26.4882 8.95801 25.5148 8.95801 24.6295H7.70801C7.70801 26.25 9.01773 27.5451 10.7406 28.3979C12.5027 29.27 14.8933 29.7916 17.4997 29.7916V28.5416ZM8.95801 24.6295C8.95801 23.7443 9.70032 22.7709 11.2951 21.9815C12.8507 21.2116 15.0435 20.7175 17.4997 20.7175V19.4675C14.8933 19.4675 12.5027 19.9891 10.7406 20.8612C9.01773 21.714 7.70801 23.0091 7.70801 24.6295H8.95801ZM17.4997 20.7175C19.9559 20.7175 22.1487 21.2116 23.7042 21.9815C25.299 22.7709 26.0413 23.7443 26.0413 24.6295H27.2913C27.2913 23.0091 25.9816 21.714 24.2587 20.8612C22.4966 19.9891 20.1061 19.4675 17.4997 19.4675V20.7175Z" fill="#F8F8F8"/>
</svg>
